<?xml version="1.0" encoding="utf-8"?>
<!-- Generator: Adobe Illustrator 22.1.0, SVG Export Plug-In . SVG Version: 6.00 Build 0)  -->
<svg version="1.1" id="Layer_1" xmlns="http://www.w3.org/2000/svg" xmlns:xlink="http://www.w3.org/1999/xlink" x="0px" y="0px"
	 viewBox="0 0 187.1 100" style="enable-background:new 0 0 187.1 100;" xml:space="preserve">
<style type="text/css">
	.st0{fill:#FFE600;}
</style>
<g>
	<g>
		<path class="st0" d="M187.1,10.5V5.1c0-2.8-2.3-5.1-5.1-5.1h-14.5v31.2h8.2v-12h3.3v12h8.2V20.7c0-2.2-1.5-4.1-3.5-4.8v-0.6
			C185.6,14.6,187.1,12.7,187.1,10.5 M178.9,12h-3.3V7.2h3.3V12z"/>
		<polygon class="st0" points="164.1,24 156,24 156,19.2 164.1,19.2 164.1,12 156,12 156,7.2 164.1,7.2 164.1,0 147.8,0 147.8,31.2 
			164.1,31.2 		"/>
		<path class="st0" d="M87.2,5.1C87.2,2.3,85,0,82.1,0H67.6v31.2h8.2V20.8h6.3c2.8,0,5.1-2.3,5.1-5.1V5.1z M79.1,13.6h-3.2V7.2h3.2
			V13.6z"/>
		<path class="st0" d="M136.3,31.2h8.2V24V0h-8.2v24h-3.3V0h-8.2v24h-3.3V0h-8.2v24v4.1c0,1.7,1.4,3.1,3.1,3.1h4.3l4.1-4.1v1
			c0,1.7,1.4,3.1,3.1,3.1h4.3l4.1-4.1V31.2z"/>
		<polygon class="st0" points="121.6,68.8 113.5,68.8 113.5,100 129.8,100 129.8,92.8 121.6,92.8 		"/>
		<polygon class="st0" points="141.3,68.8 133.1,68.8 133.1,100 149.5,100 149.5,92.8 141.3,92.8 		"/>
		<path class="st0" d="M152.7,72.4v11.7c0,2,1.6,3.6,3.6,3.6h4.6v5.1h-8.2v7.2h12.8c2,0,3.6-1.6,3.6-3.6v-8.7v-3.6
			c0-2-1.6-3.6-3.6-3.6h-4.6V76h8.2v-7.2h-12.8C154.3,68.8,152.7,70.4,152.7,72.4"/>
		<path class="st0" d="M82.2,68.8H67.6V100h8.2V89.6h6.3c2.8,0,5.1-2.3,5.1-5.1V74C87.3,71.1,85,68.8,82.2,68.8 M79.1,82.4h-3.3V76
			h3.3V82.4z"/>
		<polygon class="st0" points="129.8,58.4 121.6,58.4 121.6,53.6 129.8,53.6 129.8,46.4 121.6,46.4 121.6,41.6 129.8,41.6 
			129.8,34.4 113.5,34.4 113.5,65.6 129.8,65.6 		"/>
		<polygon class="st0" points="87.2,34.4 67.6,34.4 67.6,41.6 73.4,41.6 73.4,65.6 81.5,65.6 81.5,41.6 87.2,41.6 		"/>
		<polygon class="st0" points="102,34.4 102,46.4 98.7,46.4 98.7,34.4 90.5,34.4 90.5,65.6 98.7,65.6 98.7,53.6 102,53.6 102,65.6 
			110.2,65.6 110.2,34.4 		"/>
		<path class="st0" d="M110.2,7.2c0-4-3.2-7.2-7.2-7.2h-1h-3.3h-1c-4,0-7.2,3.2-7.2,7.2V24c0,4,3.2,7.2,7.2,7.2h1h3.3h1
			c4,0,7.2-3.2,7.2-7.2V7.2z M102,24h-3.3V7.2h3.3V24z"/>
		<path class="st0" d="M110.2,76c0-4-3.2-7.2-7.2-7.2h-1h-3.3h-1c-4,0-7.2,3.2-7.2,7.2v16.8c0,4,3.2,7.2,7.2,7.2h1h3.3h1
			c4,0,7.2-3.2,7.2-7.2V76z M102,92.8h-3.3V76h3.3V92.8z"/>
		<polygon class="st0" points="56,34.4 37.9,34.4 57.7,0 21.5,0 1.6,34.4 19.7,34.4 1.7,65.6 19.9,65.6 0,100 36.3,100 56.1,65.6 
			38,65.6 		"/>
	</g>
</g>
</svg>
