<svg xmlns="http://www.w3.org/2000/svg" viewBox="0 0 792 612"><path fill="#FFF" d="M257.42 609.34c281.9 0 436.1-233.6 436.1-436.1 0-6.5-.3-13.3-.5-19.8 29.8-21.6 55.9-48.6 76.4-79.4-27.6 12.3-56.9 20.3-88 24.1 31.6-19 55.9-48.9 67.4-84.7-29.6 17.5-62.4 30.3-97.2 37.1-28.1-29.8-67.7-48.4-111.8-48.4-84.6 0-153 68.6-153 153.1 0 12 1.3 23.8 4 34.8-127.3-6.5-240.3-67.4-315.8-160.1-13.3 22.6-20.8 48.9-20.8 76.9 0 53.1 27.1 100 68.2 127.6-25.1-.8-48.9-7.8-69.4-19v2c0 74.2 52.9 136.1 123.1 150.1-12.8 3.5-26.3 5.5-40.3 5.5-9.8 0-19.5-1-28.8-2.8 19.5 60.9 76.2 105.3 143.1 106.5-52.4 41.1-118.5 65.7-190.2 65.7-12.3 0-24.6-.8-36.6-2 67 43.6 147.7 68.9 234.1 68.9"/></svg>