<?xml version="1.0" encoding="utf-8"?>
<!-- Generator: Adobe Illustrator 24.0.1, SVG Export Plug-In . SVG Version: 6.00 Build 0)  -->
<svg version="1.1" id="Layer_1" xmlns="http://www.w3.org/2000/svg" xmlns:xlink="http://www.w3.org/1999/xlink" x="0px" y="0px"
	 viewBox="0 0 213 16.9" style="enable-background:new 0 0 213 16.9;" xml:space="preserve">
<style type="text/css">
	.st0{fill:#FFE600;}
</style>
<polygon class="st0" points="189,0 189,12 165,0 165,12 141,0 141,12 117,0 117,12 93,0 93,12 69,0 69,12 45,0 45,12 21,0 21,12 
	0,1.5 0,4.9 24,16.9 24,4.9 48,16.9 48,4.9 72,16.9 72,4.9 96,16.9 96,4.9 120,16.9 120,4.9 144,16.9 144,4.9 168,16.9 168,4.9 
	192,16.9 192,4.9 213,15.4 213,12 "/>
</svg>
