<?xml version="1.0" encoding="utf-8"?>
<!-- Generator: Adobe Illustrator 21.0.0, SVG Export Plug-In . SVG Version: 6.00 Build 0)  -->
<svg version="1.1" id="Layer_1" xmlns="http://www.w3.org/2000/svg" xmlns:xlink="http://www.w3.org/1999/xlink" x="0px" y="0px"
	 width="418.9px" height="104.5px" viewBox="0 0 418.9 104.5" style="enable-background:new 0 0 418.9 104.5;" xml:space="preserve"
	>
<g>
	<g>
		<path style="fill:#D4DCDD;" d="M75,104.2l-0.9-2.4h-6.1l-0.9,2.4h-3.5L69.2,90H73l5.5,14.2H75z M71.1,93l-2.2,6.1h4.4L71.1,93z"/>
		<path style="fill:#D4DCDD;" d="M98.5,104.2v-10l-4,10h-1.3l-4-10v10h-3V90h4.2l3.5,8.6l3.5-8.6h4.3v14.2H98.5z"/>
		<path style="fill:#D4DCDD;" d="M110.7,104.2V90h10.1v2.7h-7v3h6.9v2.7h-6.9v3.2h7v2.7H110.7z"/>
		<path style="fill:#D4DCDD;" d="M137.5,104.2l-2.8-5.1h-2.2v5.1h-3V90h6.7c3,0,4.8,1.9,4.8,4.6c0,2.5-1.6,3.9-3.1,4.2l3.2,5.4
			H137.5z M137.8,94.6c0-1.2-0.9-1.9-2.1-1.9h-3.2v3.8h3.2C136.9,96.5,137.8,95.8,137.8,94.6z"/>
		<path style="fill:#D4DCDD;" d="M149.5,104.2V90h3v14.2H149.5z"/>
		<path style="fill:#D4DCDD;" d="M160.9,97.1c0-4.4,3.3-7.4,7.6-7.4c3.1,0,5,1.7,6,3.5l-2.6,1.3c-0.6-1.2-1.9-2.1-3.4-2.1
			c-2.6,0-4.5,2-4.5,4.7c0,2.7,1.9,4.7,4.5,4.7c1.5,0,2.8-0.9,3.4-2.1l2.6,1.3c-1,1.8-2.8,3.5-6,3.5
			C164.2,104.5,160.9,101.5,160.9,97.1z"/>
		<path style="fill:#D4DCDD;" d="M192.2,104.2l-0.9-2.4h-6.1l-0.9,2.4h-3.5l5.5-14.2h3.8l5.5,14.2H192.2z M188.3,93l-2.2,6.1h4.4
			L188.3,93z"/>
		<path style="fill:#D4DCDD;" d="M202.3,95.9l-1.2-1c0.7-0.4,1.5-1.3,1.6-2c-0.1,0-0.3,0.1-0.4,0.1c-0.8,0-1.5-0.6-1.5-1.5
			c0-0.9,0.8-1.7,1.7-1.7c1,0,1.9,0.8,1.9,2.2C204.5,93.6,203.6,95,202.3,95.9z"/>
		<path style="fill:#D4DCDD;" d="M212.1,102.2l1.6-2.3c1,1,2.6,1.9,4.5,1.9c1.7,0,2.5-0.8,2.5-1.6c0-2.5-8.2-0.8-8.2-6.1
			c0-2.4,2-4.3,5.4-4.3c2.3,0,4.1,0.7,5.5,2l-1.7,2.2c-1.2-1.1-2.7-1.6-4.1-1.6c-1.3,0-2,0.6-2,1.4c0,2.3,8.2,0.7,8.2,6.1
			c0,2.6-1.9,4.6-5.7,4.6C215.4,104.5,213.4,103.6,212.1,102.2z"/>
		<path style="fill:#D4DCDD;" d="M243.9,98.6V90h3.1v8.5c0,2,1.2,3.3,3.3,3.3c2.2,0,3.3-1.4,3.3-3.3V90h3.1v8.5c0,3.5-2.1,6-6.4,6
			C246,104.5,243.9,102.1,243.9,98.6z"/>
		<path style="fill:#D4DCDD;" d="M275.7,104.2l-6.8-9.3v9.3h-3V90h3.1l6.6,8.9V90h3v14.2H275.7z"/>
		<path style="fill:#D4DCDD;" d="M287.7,104.2V90h3v14.2H287.7z"/>
		<path style="fill:#D4DCDD;" d="M299.2,97.1c0-4.3,3.1-7.4,7.4-7.4c4.3,0,7.4,3.1,7.4,7.4c0,4.3-3.1,7.4-7.4,7.4
			C302.3,104.5,299.2,101.4,299.2,97.1z M311,97.1c0-2.7-1.7-4.7-4.3-4.7c-2.6,0-4.3,2-4.3,4.7c0,2.6,1.7,4.7,4.3,4.7
			C309.3,101.8,311,99.8,311,97.1z"/>
		<path style="fill:#D4DCDD;" d="M332.3,104.2l-6.8-9.3v9.3h-3V90h3.1l6.6,8.9V90h3v14.2H332.3z"/>
		<path style="fill:#D4DCDD;" d="M343.4,102.2l1.6-2.3c1,1,2.6,1.9,4.5,1.9c1.7,0,2.5-0.8,2.5-1.6c0-2.5-8.2-0.8-8.2-6.1
			c0-2.4,2-4.3,5.4-4.3c2.3,0,4.1,0.7,5.5,2l-1.7,2.2c-1.2-1.1-2.7-1.6-4.1-1.6c-1.3,0-2,0.6-2,1.4c0,2.3,8.2,0.7,8.2,6.1
			c0,2.6-1.9,4.6-5.7,4.6C346.7,104.5,344.7,103.6,343.4,102.2z"/>
	</g>
	<g>
		<g>
			<path style="fill:#FFFFFF;" d="M49.7,42.7H18.3l-5.6,11H0l27.6-52h13l27.6,52H55.3L49.7,42.7z M44.8,33L34,11.8L23.2,33H44.8z"/>
			<path style="fill:#FFFFFF;" d="M92.3,11.9v12h34.3v10.3H92.3v19.5H80.5v-52h52.6v10.3H92.3z"/>
			<path style="fill:#FFFFFF;" d="M195.9,43.4v10.3h-48.7v-52h11.9v41.8H195.9z"/>
			<path style="fill:#FFFFFF;" d="M300.4,36.6l10.9,5.4c-4.9,7.4-14.9,13.3-28.5,13.3c-19.6,0-32.3-10.3-32.3-27.7
				c0-17.3,12.7-27.7,32.8-27.7c13.1,0,23.1,6,27.9,13.2l-10.9,5.4c-3.7-5.8-9.4-8.4-17.1-8.4c-12.3,0-20.5,5.9-20.5,17.4
				c0,11.5,8.2,17.4,20.5,17.4C290.8,45.1,296.5,42.5,300.4,36.6z"/>
			<path style="fill:#FFFFFF;" d="M326.2,53.7v-52h11.9v52H326.2z"/>
			<path style="fill:#FFFFFF;" d="M352.7,27.7c0-17.4,12.8-27.7,33.1-27.7c20.3,0,33.1,10.3,33.1,27.7s-12.8,27.7-33.1,27.7
				C365.5,55.3,352.7,45.1,352.7,27.7z M406.7,27.7c0-11.2-8.1-17.4-21-17.4c-12.9,0-21,6.2-21,17.4s8,17.4,21,17.4
				C398.6,45.1,406.7,38.8,406.7,27.7z"/>
		</g>
		<g>
			<path style="fill:#FFFFFF;" d="M202.2,32.5v-9.7h34.1v9.7H202.2z"/>
		</g>
	</g>
</g>
</svg>
