<?xml version="1.0" encoding="utf-8"?>
<!-- Generator: Adobe Illustrator 23.1.1, SVG Export Plug-In . SVG Version: 6.00 Build 0)  -->
<svg version="1.1" id="Layer_1" xmlns="http://www.w3.org/2000/svg" xmlns:xlink="http://www.w3.org/1999/xlink" x="0px" y="0px"
	 viewBox="0 0 374.7 140.1" style="enable-background:new 0 0 374.7 140.1;" xml:space="preserve">
<style type="text/css">
	.st0{fill:#FFFFFF;}
</style>
<g>
	<g>
		<g>
			<g>
				<g>
					<g>
						<g>
							<g>
								<path class="st0" d="M11.2,33.5L0,62.4h7.2l1.5-4.3h11.5l1.6,4.3h7.4L18,33.5H11.2z M10.6,52.7l3.9-10.5l3.8,10.5H10.6z"/>
								<polygon class="st0" points="37.9,33.6 31,33.6 31,62.4 47.7,62.4 47.7,56.2 37.9,56.2 								"/>
								<polygon class="st0" points="56.9,33.6 50.1,33.6 50.1,62.4 66.7,62.4 66.7,56.2 56.9,56.2 								"/>
								<path class="st0" d="M188.4,31.7L188.4,31.7c0,0,0,0,0-0.1C188.2,14.1,173.9,0,155.5,0c-18.6,0-33,14.1-33,31.6
									c0,0,0,0,0,0.1h0c0.1,17.5,14.4,31.5,33,31.5C173.9,63.2,188.3,49.1,188.4,31.7z M155.5,50.3c-10.6,0-18.7-8.4-18.7-18.6
									c0-10.3,8.3-18.7,18.8-18.7c10.5,0,18.6,8.3,18.6,18.6C174.2,41.9,166,50.3,155.5,50.3z M155.5,10.7
									c-11,0-19.8,8.1-20.7,18.7h-10C125.9,14,139,2.1,155.5,2.1c8.3,0,16.1,3.1,21.9,8.6c5.3,5,8.3,11.6,8.8,18.7h-10
									C175.1,18.8,166.4,10.7,155.5,10.7z"/>
								<rect x="230.8" y="1.9" class="st0" width="14.2" height="59.4"/>
								<rect x="81.6" y="80.5" class="st0" width="6" height="27.9"/>
								<path class="st0" d="M102.4,91.5c-2.9-2-4.3-3.2-4.3-4.5c0-1.2,1-2.1,3.5-2.1c1.9,0,4,0.5,5.4,1.1l0.1-5.7
									c-1.6-0.7-3.9-0.9-5.7-0.9c-7.1,0-10.2,3.6-10.2,7.5c0,3.2,1.5,5.3,6.2,8.7c3,2.2,4.6,3.4,4.6,4.8c0,1.3-1.3,2.5-3.7,2.5
									c-2.5,0-5.2-0.8-6.8-1.4v5.8c1.5,0.6,4.5,1,6.8,1c5.9,0,10.5-2.9,10.5-7.9C108.8,96.9,106.7,94.7,102.4,91.5z"/>
								<path class="st0" d="M86.1,61.3h8h0.1v-0.1h7.2l22.3-59.4h-14.6v0.1L94.1,44l-15-42.1H63.8L86.1,61.3L86.1,61.3z M94.2,45.3
									H96l0.2-0.9L110.6,4h10L99.9,59.1h-3.7h-2V45.3z"/>
								<path class="st0" d="M189.5,14.6h11.3v46.7H215V14.6h11.3V1.9h-36.8V14.6z M203,14.6h9.9v44.6H203V14.6z"/>
								<path class="st0" d="M349.7,27.5L345,38.9h14.5c-2,6.5-7.8,11.4-15,11.4c-10.6,0-18.7-8.3-18.7-18.7
									c0-10.3,8.2-18.6,18.7-18.6c5,0,9.9,2,13.4,5.5L367,8.4C361.3,3.3,353.2,0,344.5,0c-18.6,0-33,14.1-33,31.6
									s14.4,31.7,33,31.7c14.5,0,26.2-10.2,29.3-24.4h0.1c0.5-2.4,0.8-4.8,0.8-7.4l0-4H349.7z M344.5,61
									c-17.3,0-30.8-13-30.8-29.5s13.5-29.4,30.8-29.4c7,0,14.1,2.4,19.3,6.4l-6.1,6.9c-3.8-3-8.4-4.6-13.2-4.6
									c-11.7,0-20.8,9.1-20.8,20.7c0,11.7,9.1,20.8,20.8,20.8c7.3,0,13.9-4.5,16.5-11.4h10C367.2,52.8,356.7,61,344.5,61z"/>
								<path class="st0" d="M241.4,108.2c-0.1-9.8,8.2-18.1,19.1-18.1c4.4,0,8.5,1.1,11.9,3.2V79.6c-3.9-1.8-8.2-2.7-12.8-2.7
									c-18.8,0-32.5,14-32.5,31.3v0.1c0,17.5,13.7,31.6,32.5,31.6c4.6,0,7.1-0.6,9.8-1.7l4.1-14.5c-3.3,2.1-8.6,3.2-12.9,3.2
									C249.7,126.8,241.4,118.3,241.4,108.2z M267.7,136.4c-2.1,0.8-4.3,1.2-7.9,1.2c-16.6,0-29.3-11.6-30.3-27.4h9.9
									c1.1,10.4,10.2,18.7,21.2,18.7c2.8,0,6.3-0.4,9.7-1.5L267.7,136.4z"/>
								<path class="st0" d="M134.9,78.6h-14.2v46.7v2.8v10.1H155v-12.9h-20.1V78.6z M132.7,125.2h-9.9V80.7h9.9V125.2z"/>
								<path class="st0" d="M189.8,76.7c-18.6,0-33,14.2-33,31.6c0,17.5,14.4,31.7,33,31.8c18.5,0,33-14.2,33-31.8
									C222.7,90.8,208.2,76.7,189.8,76.7z M171.1,108.4c0-10.3,8.2-18.7,18.7-18.7s18.7,8.3,18.7,18.7c0,10.3-8.2,18.7-18.7,18.7
									C179.3,127,171.1,118.6,171.1,108.4z M211.6,129.2c-5.3,5.2-12.2,8.2-19.8,8.6v-8.7c10.6-1.1,18.7-9.8,18.7-20.7
									c0-10.9-8.1-19.6-18.7-20.7v-8.8c7.5,0.4,14.5,3.4,19.8,8.6c5.7,5.5,8.9,12.9,8.9,20.8C220.5,116.2,217.4,123.6,211.6,129.2
									z"/>
								<path class="st0" d="M305.3,78.6h-6.9L275.3,138H290l3.2-8.8h11.9H317l3.2,8.8h15.3l-23-59.4H305.3z M291.9,127.1l-0.5,1.4
									l-2.7,7.4h-10.1L300,80.7h3.2h2.1v0.1v9.3l-1.3,3.5l-9.7,26.5h3.1h5.7h2.1l0.1,7H291.9z M305.4,118.1h-7.8l7.8-21.8
									l7.8,21.8C313.2,118.1,305.4,118.1,305.4,118.1z"/>
								<path class="st0" d="M353.7,117.2V78.8h-14.2v59.4h14.2h0h20.1v-12.9h-20.1V117.2z M351.6,117.2v8.3v10.7h-9.9V80.9h9.9
									V117.2z"/>
								<path class="st0" d="M266.6,25.9l25.9,35.4h11.2h2.4V1.9H292v35.5L266.2,1.9h-11.3h-2.5v59.4h14.2V25.9z M294.1,4.1h9.9
									v53.1l-9.9-17.9V4.1z M264.5,59.1h-9.9V6l9.9,17.9V59.1z"/>
							</g>
						</g>
					</g>
				</g>
			</g>
		</g>
	</g>
</g>
</svg>
