<?xml version="1.0" encoding="utf-8"?>
<!-- Generator: Adobe Illustrator 24.0.3, SVG Export Plug-In . SVG Version: 6.00 Build 0)  -->
<svg version="1.1" id="Layer_1" xmlns="http://www.w3.org/2000/svg" xmlns:xlink="http://www.w3.org/1999/xlink" x="0px" y="0px"
	 viewBox="0 0 259.2 152.64" style="enable-background:new 0 0 259.2 152.64;" xml:space="preserve">
<style type="text/css">
	.st0{fill:#FFFFFF;}
	.st1{font-family:'OpenSans-Light';}
	.st2{font-size:10px;}
	.st3{fill:#FF352E;}
	.st4{fill:#001C60;}
	.st5{fill:#CCD3E7;}
	.st6{opacity:0.5;fill:#FFFFFF;}
	.st7{opacity:0.5;fill:#001C60;}
	.st8{fill:#47555E;}
	.st9{fill:#26428F;}
	.st10{fill:#A5257B;}
	.st11{fill:#D22A2D;}
	.st12{fill:#23B09B;}
	.st13{fill:#B7C435;}
	.st14{fill:#FFE500;}
	.st15{fill:#FC5000;}
	.st16{clip-path:url(#SVGID_2_);fill:#FFFFFF;}
	.st17{clip-path:url(#SVGID_4_);fill:#FFFFFF;}
	.st18{clip-path:url(#SVGID_6_);fill:#FFFFFF;}
	.st19{fill:#979FA2;}
	.st20{fill:#20265B;}
	.st21{fill:#E53E30;}
	.st22{fill:none;stroke:#FF352E;stroke-width:4.0006;stroke-miterlimit:10;}
</style>
<text transform="matrix(1 0 0 1 -1.854753e-04 -1.8612)" class="st0 st1 st2">ET C4 ONE COLOR WHITE</text>
<g>
	<polygon class="st0" points="78.57,68.21 220.26,68.21 220.26,62.31 78.57,62.31 78.57,68.21 	"/>
	<polygon class="st0" points="78.57,54.43 220.26,54.43 220.26,48.53 78.57,48.53 78.57,54.43 	"/>
	<polygon class="st0" points="78.57,40.67 220.26,40.67 220.26,34.77 78.57,34.77 78.57,40.67 	"/>
	<polygon class="st0" points="38.94,68.21 73.43,68.21 73.43,62.31 38.94,62.31 38.94,68.21 	"/>
	<polygon class="st0" points="38.94,54.43 73.43,54.43 73.43,48.53 38.94,48.53 38.94,54.43 	"/>
	<polygon class="st0" points="38.94,40.67 73.43,40.67 73.43,34.77 38.94,34.77 38.94,40.67 	"/>
	<path class="st0" d="M167.11,91.32c-0.16,0.62-0.4,1.15-0.7,1.57c-0.3,0.42-0.65,0.74-1.07,0.97c-0.42,0.22-0.87,0.33-1.36,0.33
		c-0.49,0-0.94-0.11-1.35-0.32c-0.41-0.21-0.77-0.53-1.07-0.95c-0.3-0.42-0.53-0.94-0.69-1.56c-0.16-0.62-0.24-1.33-0.24-2.14
		c0-0.8,0.09-1.51,0.25-2.13c0.17-0.62,0.4-1.14,0.7-1.57c0.3-0.42,0.65-0.75,1.07-0.97c0.42-0.22,0.87-0.33,1.36-0.33
		c0.49,0,0.94,0.11,1.35,0.33c0.41,0.22,0.76,0.53,1.06,0.95c0.3,0.42,0.53,0.94,0.69,1.56c0.16,0.62,0.25,1.33,0.25,2.13
		C167.36,89.99,167.27,90.7,167.11,91.32 M172.42,85.06c-0.45-1.21-1.07-2.21-1.87-3.02c-0.8-0.81-1.75-1.42-2.87-1.84
		c-1.11-0.42-2.34-0.63-3.67-0.63c-1.33,0-2.55,0.21-3.68,0.64c-1.12,0.43-2.08,1.05-2.89,1.86c-0.81,0.82-1.43,1.83-1.88,3.04
		c-0.45,1.2-0.67,2.57-0.67,4.11c0,1.55,0.22,2.93,0.66,4.12c0.44,1.2,1.06,2.21,1.87,3.02c0.8,0.81,1.76,1.43,2.88,1.84
		c1.11,0.42,2.34,0.63,3.66,0.63c1.33,0,2.56-0.21,3.69-0.64c1.12-0.42,2.09-1.05,2.9-1.86c0.8-0.82,1.43-1.84,1.88-3.03
		c0.45-1.2,0.68-2.57,0.68-4.12C173.1,87.64,172.87,86.26,172.42,85.06"/>
	<polygon class="st0" points="174.49,79.87 180.49,79.87 182.32,89.75 184.25,79.87 190.7,79.87 192.92,89.88 194.88,79.87 
		200.38,79.87 196.03,98.54 190.03,98.54 187.41,87.39 184.76,98.54 178.84,98.54 174.49,79.87 	"/>
	<polygon class="st0" points="63.32,98.54 68.57,98.54 75.02,79.88 69.66,79.88 65.97,92.02 62.17,79.88 56.87,79.88 63.32,98.54 	
		"/>
	<polygon class="st0" points="44.09,94.19 44.09,91.37 52.85,91.37 52.85,87.1 44.09,87.1 44.09,84.22 53.31,84.22 53.31,79.87 
		38.94,79.87 38.94,98.55 53.31,98.55 53.31,94.19 44.09,94.19 	"/>
	<path class="st0" d="M102.53,84.09h3.15c0.83,0,1.41,0.18,1.76,0.56c0.35,0.37,0.52,0.85,0.52,1.44c0,0.67-0.18,1.19-0.54,1.54
		c-0.36,0.36-0.97,0.53-1.83,0.53h-3.07V84.09L102.53,84.09z M112.22,89.39c0.61-0.89,0.91-2.03,0.91-3.44
		c0-1.1-0.18-2.04-0.52-2.81c-0.35-0.77-0.84-1.4-1.48-1.88c-0.64-0.48-1.41-0.83-2.31-1.05c-0.9-0.22-1.9-0.33-2.99-0.33h-8.38
		v18.67h5.08v-6.29h2.41l3.36,6.29h5.21l-3.76-7.12C110.79,90.96,111.62,90.28,112.22,89.39"/>
	<polygon class="st0" points="127.03,91.58 133.97,79.87 128.76,79.87 124.44,87.53 120.26,79.87 114.85,79.87 121.78,91.66 
		121.78,98.54 127.03,98.54 127.03,91.58 	"/>
	<polygon class="st0" points="147.37,84.38 152.64,84.38 152.64,79.87 136.95,79.87 136.95,84.38 142.22,84.38 142.22,98.54 
		147.37,98.54 147.37,84.38 	"/>
	<path class="st0" d="M215.14,79.87v5.09v1.28c0,0.48,0.01,0.95,0.03,1.4c0.01,0.45,0.03,0.87,0.05,1.25
		c0.02,0.39,0.04,0.68,0.08,0.89c-0.11-0.2-0.28-0.48-0.51-0.86c-0.23-0.37-0.49-0.77-0.78-1.2c-0.29-0.42-0.57-0.85-0.87-1.28
		c-0.29-0.43-0.55-0.78-0.76-1.06l-4.12-5.53h-4.58v18.68h4.98v-5.71v-1.28c0-0.48-0.01-0.95-0.03-1.4
		c-0.02-0.46-0.04-0.87-0.05-1.25c-0.02-0.38-0.05-0.68-0.08-0.9c0.12,0.22,0.3,0.51,0.55,0.88c0.24,0.37,0.5,0.77,0.78,1.18
		c0.28,0.42,0.55,0.84,0.84,1.25c0.29,0.42,0.54,0.77,0.75,1.05l4.47,6.17h4.23V79.87H215.14L215.14,79.87z"/>
	<polygon class="st0" points="83.72,94.19 83.72,91.37 92.49,91.37 92.49,87.1 83.72,87.1 83.72,84.22 92.95,84.22 92.95,79.87 
		78.58,79.87 78.58,98.54 92.95,98.54 92.95,94.19 83.72,94.19 	"/>
	<g>
		<polygon class="st0" points="163.28,117.62 170.52,117.62 170.52,115.42 165.87,115.42 165.87,114.01 170.29,114.01 
			170.29,111.86 165.87,111.86 165.87,110.4 170.52,110.4 170.52,108.22 163.28,108.22 		"/>
		<path class="st0" d="M95.26,113.01c0.31-0.45,0.46-1.02,0.46-1.73c0-0.55-0.09-1.03-0.26-1.41c-0.18-0.39-0.42-0.7-0.75-0.95
			c-0.32-0.24-0.71-0.42-1.16-0.53c-0.45-0.11-0.95-0.17-1.5-0.17h-4.22v9.4h2.56v-3.17h1.21l1.69,3.17h2.62l-1.89-3.59
			C94.54,113.8,94.95,113.46,95.26,113.01z M92.85,112.13c-0.18,0.18-0.49,0.27-0.92,0.27h-1.55v-2.05h1.59
			c0.42,0,0.71,0.09,0.89,0.28c0.18,0.19,0.26,0.43,0.26,0.73C93.12,111.69,93.03,111.95,92.85,112.13z"/>
		<polygon class="st0" points="187.55,108.21 185.37,112.07 183.27,108.21 180.55,108.21 184.04,114.15 184.04,117.62 
			186.68,117.62 186.68,114.11 190.17,108.21 		"/>
		<polygon class="st0" points="171.99,110.5 174.64,110.5 174.64,117.62 177.23,117.62 177.23,110.5 179.88,110.5 179.88,108.23 
			171.99,108.23 		"/>
		<path class="st0" d="M105.98,114.33h1.61c-0.07,0.62-0.52,1.2-1.7,1.2c-1.53,0-1.99-1.12-1.99-2.5v-0.11
			c0-1.59,0.73-2.51,1.91-2.51c0.92,0,1.41,0.43,1.52,1.21h2.95c-0.16-2.51-2.19-3.55-4.49-3.55c-2.86,0-5.02,1.92-5.02,4.8v0.11
			c0,2.83,1.76,4.81,5.02,4.81c3.17,0,4.71-1.87,4.71-4.21v-1.21h-4.53V114.33z"/>
		<path class="st0" d="M117.41,113.61c0,1.24-0.26,1.84-1.32,1.84c-1.07,0-1.33-0.6-1.33-1.83v-5.41h-2.98v5.53
			c0,2.68,1.56,4.05,4.32,4.05c2.64,0,4.33-1.25,4.33-4.08v-5.5h-3.01V113.61z"/>
		<polygon class="st0" points="128.15,113.19 125.47,108.21 122.11,108.21 122.11,108.23 122.11,108.23 122.11,117.59 
			122.11,117.59 122.11,117.62 124.75,117.62 124.75,111.99 127.91,117.62 130.77,117.62 130.77,108.21 128.15,108.21 		"/>
		<path class="st0" d="M139.76,111.65c-1.04-0.13-1.32-0.34-1.32-0.79c0-0.41,0.32-0.68,0.94-0.68c0.63,0,0.96,0.33,1.03,0.91h2.77
			c-0.16-2.05-1.46-3-3.8-3c-2.35,0-3.77,1.26-3.77,3c0,1.93,0.92,2.72,3.64,3.03c1.02,0.15,1.35,0.3,1.35,0.8
			c0,0.46-0.34,0.78-1.05,0.78c-0.97,0-1.26-0.49-1.32-1.08h-2.84c0.06,2.12,1.49,3.18,4.16,3.18c2.54,0,3.91-1.45,3.91-3.2
			C143.46,112.5,142.14,111.9,139.76,111.65z"/>
		<path class="st0" d="M147.12,108.21l-2.97,9.41h2.99l0.42-1.56h2.98l0.44,1.56h2.96l-2.96-9.41H147.12z M148.13,114.03l0.94-3.41
			l0.93,3.41H148.13z"/>
		<polygon class="st0" points="161.59,108.23 155.05,108.23 155.05,108.23 155.05,110.53 155.05,112.26 155.05,114.56 
			155.05,117.63 157.86,117.63 157.86,114.56 161.6,114.56 161.6,112.26 157.86,112.26 157.86,110.53 161.6,110.53 161.6,108.23 
			161.59,108.23 		"/>
		<polygon class="st0" points="75.45,108.23 68.92,108.23 68.92,108.23 68.92,108.23 68.92,110.53 68.92,110.53 68.92,112.26 
			68.92,112.26 68.92,114.56 68.92,114.56 68.92,117.63 71.72,117.63 71.72,114.56 75.46,114.56 75.46,112.26 71.72,112.26 
			71.72,110.53 75.46,110.53 75.46,108.23 75.45,108.23 		"/>
		<path class="st0" d="M85.02,109.26c-0.41-0.42-0.9-0.73-1.47-0.94c-0.57-0.22-1.2-0.32-1.89-0.32c-0.68,0-1.31,0.11-1.89,0.33
			c-0.57,0.22-1.07,0.54-1.49,0.96c-0.41,0.42-0.73,0.94-0.96,1.56c-0.23,0.61-0.35,1.32-0.35,2.11c0,0.8,0.11,1.5,0.34,2.12
			c0.22,0.62,0.55,1.14,0.96,1.55c0.41,0.41,0.9,0.73,1.48,0.94c0.57,0.22,1.2,0.32,1.88,0.32c0.68,0,1.31-0.11,1.89-0.33
			c0.58-0.22,1.07-0.54,1.49-0.96c0.41-0.42,0.74-0.94,0.97-1.56c0.23-0.62,0.35-1.32,0.35-2.12c0-0.79-0.12-1.5-0.35-2.11
			C85.75,110.18,85.43,109.67,85.02,109.26z M83.25,114.02c-0.08,0.32-0.2,0.59-0.35,0.81c-0.15,0.21-0.34,0.38-0.55,0.49
			c-0.21,0.11-0.45,0.17-0.7,0.17c-0.25,0-0.49-0.06-0.7-0.17c-0.21-0.11-0.39-0.27-0.55-0.49c-0.15-0.21-0.27-0.48-0.36-0.8
			c-0.08-0.32-0.12-0.68-0.12-1.1c0-0.41,0.04-0.77,0.13-1.09c0.09-0.32,0.2-0.59,0.36-0.8c0.15-0.22,0.34-0.38,0.55-0.5
			c0.21-0.12,0.45-0.17,0.7-0.17c0.25,0,0.49,0.05,0.7,0.17c0.21,0.11,0.39,0.27,0.54,0.49c0.15,0.21,0.27,0.48,0.35,0.8
			c0.09,0.32,0.13,0.68,0.13,1.1C83.38,113.33,83.34,113.7,83.25,114.02z"/>
	</g>
</g>
</svg>
