<svg id="Layer_1" data-name="Layer 1" xmlns="http://www.w3.org/2000/svg" viewBox="0 0 377.88 315.24"><defs><style>.cls-1{fill:#d12435;}</style></defs><title>GF_Content_Logo_Red</title><path class="cls-1" d="M82,141.29l-3.47-11.78c-5,9.66-15.46,15.07-27.63,15.07-25.49,0-38.44-17.58-38.44-37.47V46.84c0-19.12,15.26-37.28,42.69-37.28S96.5,26.75,96.5,46.84V56.5H69.84V46.07c0-7.15-4.25-13.33-14.48-13.33-10,0-14.88,6.57-14.88,13.72v61c0,7,5.21,13.72,15.07,13.72,10.23,0,15.25-6.77,15.25-13.72V94.16H55.74V75.24H97.08v66.05Z" transform="translate(-12.47 -9.56)"/><polygon class="cls-1" points="27.61 168.84 27.61 199.55 68.11 199.55 68.11 221.77 27.61 221.77 27.61 275.08 0 275.08 0 146.43 85.29 146.43 85.29 168.84 27.61 168.84"/><path class="cls-1" d="M151.56,144.58c-26.46,0-42.31-16.42-42.31-39.41V48.77c0-22.79,15.85-39.21,42.31-39.21,26.65,0,42.3,16.42,42.3,39.21v56.4C193.86,128.16,178.21,144.58,151.56,144.58ZM166,47.23c0-8.69-5.22-14.49-14.48-14.49-9.08,0-14.3,5.8-14.3,14.49v59.49c0,8.69,5.22,14.49,14.3,14.49,9.26,0,14.48-5.8,14.48-14.49Z" transform="translate(-12.47 -9.56)"/><polygon class="cls-1" points="96.61 275.08 96.61 146.43 175.03 146.43 175.03 169.62 124.23 169.62 124.23 197.81 161.08 197.81 161.08 218.68 124.23 218.68 124.23 250.93 177.18 250.93 177.18 275.08 96.61 275.08"/><path class="cls-1" d="M248.32,144.58c-26.46,0-42.29-16.42-42.29-39.41V48.77C206,26,221.86,9.56,248.32,9.56c26.65,0,42.3,16.42,42.3,39.21v56.4C290.62,128.16,275,144.58,248.32,144.58Zm14.49-97.35c0-8.69-5.22-14.49-14.49-14.49-9.08,0-14.3,5.8-14.3,14.49v59.49c0,8.69,5.22,14.49,14.3,14.49,9.27,0,14.49-5.8,14.49-14.49Z" transform="translate(-12.47 -9.56)"/><path class="cls-1" d="M345.12,141.29H302.24V12.66h42.88c26.66,0,40.95,17.19,40.95,38.62V104.2C386.07,125.84,371.78,141.29,345.12,141.29Zm13.32-89.43c0-10.24-4.83-16.23-15.44-16.23H329.86v82.68H343c10.61,0,15.44-6,15.44-16.23Z" transform="translate(-12.47 -9.56)"/><path class="cls-1" d="M373.83,285.41c-11.2,0-15.45-7.73-15.45-19.7V244.65c0-6.76-3.48-12.56-11.4-12.56H329.86v52.55H302.24V156h48.61c20.86,0,33.41,12,33.41,30.51v13.91c0,10.43-5,18.35-16.61,21.44a21.64,21.64,0,0,1,17.18,21.25v21.05c0,6,1.94,10,5.42,13.14v8.11ZM357.6,188.06c0-6.37-2.7-10.43-9.85-10.43H329.86V213H346.6c7.14,0,11-3.67,11-11.4Z" transform="translate(-12.47 -9.56)"/><path class="cls-1" d="M236.25,276.62l15.95-16.18,23.36,24.2h16L261.61,156h-30.9L200.59,284.64h16.29l13.38-12.58Zm9.53-84.89,9.07,46.93H235.93Z" transform="translate(-12.47 -9.56)"/><path class="cls-1" d="M253.82,324.81c-5.47,0-7.89-3.67-7.89-7.64V306.75c0-4,2.42-7.6,7.89-7.6s7.74,3.23,7.74,7.16v2H258v-1.72c0-2.5-1.36-4-4.11-4s-4.11,1.61-4.11,3.85v11.2c0,2.2,1.36,3.81,4.11,3.81s4.11-1.54,4.11-4v-1.73h3.52v2C261.56,321.54,259.32,324.81,253.82,324.81Z" transform="translate(-12.47 -9.56)"/><path class="cls-1" d="M275.66,324.81c-5.47,0-7.89-3.42-7.89-7.93V307c0-4.47,2.42-7.89,7.89-7.89s7.89,3.42,7.89,7.89v9.84C283.55,321.39,281.16,324.81,275.66,324.81Zm4-18c0-2.5-1.25-4.26-4-4.26s-4,1.76-4,4.26v10.35c0,2.49,1.25,4.25,4,4.25s4-1.76,4-4.25Z" transform="translate(-12.47 -9.56)"/><path class="cls-1" d="M303.18,324.18l-7-11.67L293.68,308v16.15H290V299.74h3l6.82,11.89,2.39,4.48V299.74h3.67v24.44Z" transform="translate(-12.47 -9.56)"/><path class="cls-1" d="M321.5,303.26v20.92h-3.89V303.26h-5.95v-3.52h15.78v3.52Z" transform="translate(-12.47 -9.56)"/><path class="cls-1" d="M333.2,324.18V299.74h13.22v3.49h-9.33v6.42h6.72V313h-6.72v7.75h9.33v3.48Z" transform="translate(-12.47 -9.56)"/><path class="cls-1" d="M366.09,324.18l-7-11.67-2.5-4.48v16.15h-3.67V299.74h3l6.83,11.89,2.38,4.48V299.74h3.67v24.44Z" transform="translate(-12.47 -9.56)"/><path class="cls-1" d="M384.4,303.26v20.92h-3.89V303.26h-5.94v-3.52h15.78v3.52Z" transform="translate(-12.47 -9.56)"/></svg>