<?xml version="1.0" encoding="utf-8"?>
<!-- Generator: Adobe Illustrator 24.2.1, SVG Export Plug-In . SVG Version: 6.00 Build 0)  -->
<svg version="1.1" xmlns="http://www.w3.org/2000/svg" xmlns:xlink="http://www.w3.org/1999/xlink" x="0px" y="0px"
	 viewBox="0 0 432 288" style="enable-background:new 0 0 432 288;" xml:space="preserve">
<style type="text/css">
	.st0{font-family:'Merriweather-Bold';}
	.st1{font-size:74.8669px;}
	.st2{letter-spacing:3;}
	.st3{letter-spacing:5;}
	.st4{font-family:'Merriweather-Italic';}
	.st5{font-size:26px;}
	.st6{letter-spacing:1;}
	.st7{letter-spacing:2;}
</style>
<g id="Layer_1">
</g>
<g id="Layer_3">
	<g>
		<g>
			<path d="M77.67,91.89c0.07,0.37,0.58,0.41,0.7,0.05c1.11-3.35,4-10.42,8.53-10.3c4,0.11,6.02,1.49,6.9,2.38
				c0.32,0.32,0.22,0.85-0.19,1.04c-1.25,0.57-3.57,2.03-3.52,4.96c0.06,3.74,4.47,6.84-1.62,17.36
				c-2.01,3.48-9.47,15.59-32.62,14.26c-0.26-0.02-0.35-0.37-0.12-0.5c3.07-1.71,13.93-8.12,14.33-13.6
				c0.45-6.2-14.34-9.62-25.62-9.53c-0.32,0-0.45-0.4-0.19-0.58c3.47-2.35,16.67-10.81,27.68-11.1
				C75.99,86.21,77.27,89.69,77.67,91.89z"/>
			<path d="M84.9,127.57H67.93c-0.16,0-0.29-0.13-0.29-0.29v-2.51c0-0.16,0.13-0.29,0.29-0.29H84.9c0.16,0,0.29,0.13,0.29,0.29v2.51
				C85.19,127.44,85.06,127.57,84.9,127.57z"/>
			<path d="M82.99,133.53H69.82c-0.17,0-0.32-0.14-0.32-0.32v-4.57c0-0.17,0.14-0.32,0.32-0.32h13.17c0.17,0,0.32,0.14,0.32,0.32
				v4.57C83.31,133.39,83.17,133.53,82.99,133.53z"/>
			<path d="M52.54,134.31H99.6c0.13,0,0.22,0.12,0.2,0.24l-1.94,8.88c-0.02,0.09-0.1,0.16-0.2,0.16H54.92
				c-0.09,0-0.17-0.06-0.19-0.15l-2.39-8.88C52.31,134.43,52.4,134.31,52.54,134.31z"/>
			<path d="M97.15,146.71H55.52c-0.16,0-0.28-0.13-0.28-0.28v-1.78c0-0.16,0.13-0.28,0.28-0.28h41.63c0.16,0,0.28,0.13,0.28,0.28
				v1.78C97.43,146.58,97.31,146.71,97.15,146.71z"/>
			<path d="M96.59,72.24c0.02-0.03,0.06-0.03,0.09-0.01c0.41,0.32,3.39,2.75,3.55,5.99c0.18,3.48-2.23,3.94-2.88,3.99
				c-0.64,0.04-3.04-0.09-3.36-3.56C93.68,75.43,96.24,72.61,96.59,72.24z"/>
			<path d="M109.53,73.04c0.03,0.01,0.06,0.03,0.05,0.07c-0.04,0.51-0.41,4.34-3.02,6.28c-2.8,2.08-4.52,0.33-4.92-0.18
				c-0.39-0.52-1.61-2.58,1.1-4.77C105.27,72.39,109.03,72.96,109.53,73.04z"/>
			<path d="M109.23,84.27c0.02,0.03,0.02,0.06,0,0.09c-0.34,0.38-2.97,3.2-6.22,3.14c-3.48-0.06-3.78-2.49-3.79-3.14
				c0.01-0.65,0.29-3.02,3.78-3.12C106.24,81.16,108.88,83.9,109.23,84.27z"/>
			<path d="M78.31,158.09c-0.35-0.16-0.77,0-0.94,0.35c-0.39,0.8-0.84,2.25,0.15,3.54c1,1.3,3.2,2.35,4.47,2.87
				c0.51,0.21,0.93,0.61,1.09,1.14c0.08,0.27,0.22,0.58,0.44,0.88c0.32,0.44,0.52,0.95,0.48,1.49l-1.19,16.48
				c0,0,0.89,0.11,1.64,0.01c0.27-0.03,0.53,0.14,0.59,0.4l7.63,29.97c0.08,0.33,0.38,0.55,0.71,0.55h16.13
				c0.36,0,0.64-0.32,0.58-0.68c-0.5-3.02-3.1-15.92-13.28-34.17c-0.58-1.03-0.9-2.18-0.93-3.36c-0.05-1.88-0.12-4.84-0.16-6.75
				c-0.03-1.2-0.55-2.33-1.44-3.14l-4.74-4.31c-0.37-0.34-0.8-0.62-1.26-0.83L78.31,158.09z"/>
			<path d="M77.31,172.29c0.11-1.29-0.62-2.14-1.9-2.91c-0.93-0.56-2.27-1.29-3.48-1.9c-0.48-0.24-0.52-0.88-0.11-1.23
				c0.41-0.34,0.76-0.83,0.76-1.48c0-1.58-0.73-2.01-1.43-2.71c-0.71-0.71-2.35-1.78-2.35-1.78s-0.97-0.62-2.2,0.59
				c-0.93,0.9-0.88,1.97-0.76,2.6c0.05,0.27,0.17,0.7,0.28,1.07c0.12,0.42,0.04,0.86-0.19,1.23c-0.3,0.47-0.66,1.2-0.64,1.94
				c0.03,0.87,0.46,1.67,0.73,2.09c0.12,0.19,0.12,0.42,0.01,0.61c-0.29,0.46-0.79,1.36-0.74,2.15c0.05,0.89,0.65,1.96,0.89,2.36
				c0.06,0.11,0.08,0.22,0.05,0.34c-0.09,0.34-0.13,1.08-0.07,1.84c0.09,1.16,0.88,2.29,2.67,2.96c1.13,0.42,3.09,0.92,4.05,0.92
				c1.48,0,2.9-0.07,3.39-1.06c0.34-0.69,0.06-1.5-0.32-1.87c-0.26-0.26-0.24-0.77,0.16-0.83c0.46-0.07,0.91-0.6,0.97-1.14
				c0.12-1-0.14-1.29-1.08-1.95c-0.24-0.17-0.23-0.57,0.11-0.63C77,173.36,77.26,172.89,77.31,172.29z"/>
			<path d="M82.73,174.85l0.47-6.44c0.03-0.45-0.18-0.84-0.37-1.1c-0.23-0.32-0.41-0.67-0.53-1.06c-0.1-0.33-0.37-0.61-0.75-0.76
				c-1.58-0.65-3.68-1.71-4.72-3.06c-1.2-1.55-0.65-3.28-0.22-4.17c0.01-0.01,0.02-0.02,0.02-0.03c0.02-0.04,0.03-0.08,0.05-0.12
				c0.25-0.51,0.77-0.83,1.33-0.83c0.21,0,0.4,0.04,0.59,0.13l5.21,2.33c0.02-0.29,0.04-0.59,0.06-0.87h0.67
				c1.43,0,2.57-1.3,2.3-2.77c-0.21-1.14-1.29-1.91-2.44-1.91H84.3c-0.05,0-0.09-0.04-0.08-0.09c0.09-1.41,0.14-2.32,0.14-2.56
				c0-1.75,2.8-3.39,3.75-3.9c0.08-0.04,0.05-0.16-0.04-0.16l-23.57,0.11c-0.09,0-0.12,0.12-0.04,0.16c0.94,0.5,3.75,2.15,3.75,3.9
				l0.16,2.45c0,0.05-0.04,0.09-0.08,0.09h-0.13c-1.15,0-2.23,0.77-2.44,1.91c-0.27,1.48,0.87,2.77,2.3,2.77h0.67l0.04,0.61
				c0.26,0.07,0.44,0.17,0.49,0.2c0.08,0.05,1.72,1.12,2.48,1.88c0.09,0.09,0.18,0.18,0.27,0.26c0.64,0.61,1.38,1.3,1.38,2.98
				c0,0.78-0.36,1.49-1.03,2.05c1.19,0.6,2.54,1.34,3.49,1.91c1.14,0.68,2.42,1.71,2.26,3.61c-0.06,0.77-0.41,1.32-1.01,1.64
				c0.6,0.52,0.92,1.08,0.79,2.19c-0.08,0.7-0.54,1.33-1.11,1.63c0.44,0.63,0.65,1.61,0.23,2.45c-0.74,1.48-2.74,1.48-4.06,1.48
				c-0.7,0-1.77-0.22-2.73-0.48l0.89,13.62h-0.8v2.61c0,0.05,0.04,0.08,0.08,0.08h0.81c0.04,0,0.08,0.03,0.08,0.08l0.5,7.64
				c0,0,0.04,1.95,1.36,2.19c0.07,0.01,0.1,0.1,0.04,0.15c-0.61,0.48-1.27,1.32-1.22,2.73c0.08,2.61,3.78,4.02,3.78,4.02v0.55h1.22
				v-0.55c0,0,3.71-1.4,3.78-4.02c0.04-1.5-0.7-2.36-1.33-2.82c-0.05-0.04-0.04-0.11,0.02-0.14c1.06-0.44,1.09-2.11,1.09-2.11
				s0.23-3.03,0.57-7.64c0-0.04,0.04-0.08,0.08-0.08h0.76c0.05,0,0.08-0.04,0.08-0.08v-2.61h-0.72
				C81.67,189.18,82.21,181.85,82.73,174.85z"/>
		</g>
		<text transform="matrix(1 0 0 1 118.8602 140.9297)"><tspan x="0" y="0" class="st0 st1 st2">M</tspan><tspan x="79.88" y="0" class="st0 st1 st3">W</tspan><tspan x="161.11" y="0" class="st0 st1">EG</tspan></text>
		<text transform="matrix(1 0 0 1 117.7965 174.2745)"><tspan x="0" y="0" class="st4 st5 st6">Mormon</tspan><tspan x="112.99" y="0" class="st4 st5 st7"> </tspan><tspan x="121.37" y="0" class="st4 st5">W</tspan><tspan x="145.1" y="0" class="st4 st5 st6">omen</tspan><tspan x="220.24" y="0" class="st4 st5 st7"> </tspan><tspan x="228.64" y="0" class="st4 st5 st6">for</tspan><tspan x="6.63" y="31.2" class="st4 st5 st7">E</tspan><tspan x="24.8" y="31.2" class="st4 st5 st6">t</tspan><tspan x="35.52" y="31.2" class="st4 st5">hi</tspan><tspan x="61.7" y="31.2" class="st4 st5">ca</tspan><tspan x="90.01" y="31.2" class="st4 st5 st6">l G</tspan><tspan x="125.97" y="31.2" class="st4 st5">o</tspan><tspan x="141.59" y="31.2" class="st4 st5">ve</tspan><tspan x="170.06" y="31.2" class="st4 st5 st6">rnme</tspan><tspan x="239.3" y="31.2" class="st4 st5 st6">nt</tspan></text>
	</g>
</g>
</svg>
