<?xml version="1.0" encoding="utf-8"?>
<!-- Generator: Adobe Illustrator 22.1.0, SVG Export Plug-In . SVG Version: 6.00 Build 0)  -->
<svg version="1.1"
	 id="svg2" xmlns:cc="http://creativecommons.org/ns#" xmlns:dc="http://purl.org/dc/elements/1.1/" xmlns:rdf="http://www.w3.org/1999/02/22-rdf-syntax-ns#" xmlns:svg="http://www.w3.org/2000/svg"
	 xmlns="http://www.w3.org/2000/svg" xmlns:xlink="http://www.w3.org/1999/xlink" x="0px" y="0px" viewBox="0 0 288 137.2"
	 style="enable-background:new 0 0 288 137.2;" xml:space="preserve">
<style type="text/css">
	.st0{fill:#7F7F7F;}
	.st1{fill:#FFFFFF;}
</style>
<g id="g10" transform="matrix(1.3333333,0,0,-1.3333333,0,137.17333)">
	<g id="g12" transform="scale(0.1)">
		<path id="path16" class="st0" d="M2057.2,102.9h-795.1V926h795.1V102.9"/>
		<path id="path18" class="st1" d="M1262.1,102.9H102.9V926h1159.3V102.9"/>
		<path id="path20" class="st1" d="M1988,519.8c0-181.3-147.1-328.4-328.3-328.4c-181.5,0-328.3,147.1-328.3,328.4
			c0,181.3,146.9,328.3,328.3,328.3C1840.9,848.1,1988,701.1,1988,519.8"/>
		<path id="path22" d="M1489.3,455.7c3.3,1.6,11.1,5,14.5,6.7c4,2,3.4,3.7,2.2,6.9c-5.2,15.8-7.8,32.5-7.8,49.8
			c0,89.1,72.4,161.6,161.5,161.6c88.8,0,161.2-72.5,161.2-161.6c0-22.8-4.8-44.6-13.3-64.2c-0.8-1.4-0.9-4.2,1.4-5.4
			c2.6-1.1,12.4-5.5,15.3-6.6c2.9-1.2,4.7-0.5,6.2,2.6c9.8,22.7,15.2,47.6,15.2,73.7c0,102.9-83.4,186.4-186.1,186.4
			c-102.9,0-186.2-83.5-186.2-186.4c0-21.1,3.5-41.2,9.9-60.2C1484.4,456,1486,454.2,1489.3,455.7"/>
		<path id="path24" d="M1442.1,433.8c3.8,2,17.1,8,20.6,9.8c3.7,1.5,2.8,4.6,2.2,6c-7.8,21.8-12,45-12,69.6
			c0,114.2,92.8,206.9,206.9,206.9c113.8,0,206.6-92.7,206.6-206.9c0-29.2-6-57-17.1-82.2c-0.6-1.3-1.5-4.5,2-5.8
			c3.1-1.4,18-8.1,20.8-9.3c2.9-1.2,4.8-0.7,6.2,2.7c12.7,28.9,19.6,61,19.6,94.5c0,131.4-106.8,238.4-238.1,238.4
			c-131.6,0-238.4-107-238.4-238.4c0-28.9,5.3-56.7,14.8-82.4C1436.8,435.1,1438,431.9,1442.1,433.8"/>
		<path id="path26" d="M1377.7,404.1c4.6,2.3,32.6,15.3,37.5,17.4c5.1,2.2,2.9,6,2.2,8.1c-10.4,27.9-16,58-16,89.4
			c0,142.7,115.9,258.7,258.5,258.7c142.2,0,258.2-115.9,258.2-258.7c0-36.1-7.5-70.3-20.8-101.6c-0.9-1.9-1.8-5.7,2.9-7.7
			c4.4-2,31.7-14,35.4-15.5c3.7-1.8,6.5-1.4,9,4.1c15.8,37.3,24.4,78.2,24.4,120.8c0,170.8-138.7,309.8-309.2,309.8
			c-170.8,0-309.5-139-309.5-309.8c0-39.3,7.3-76.8,20.7-111.3C1371.8,405.9,1373.1,402.2,1377.7,404.1"/>
		<path id="path28" d="M1659.8,586.3c18.2,0,33.2,14.8,33.2,33.1c0,18.5-15,33.2-33.2,33.2c-18.5,0-33.1-14.7-33.1-33.2
			C1626.7,601.1,1641.3,586.3,1659.8,586.3"/>
		<path id="path30" d="M1672,412.6c6.4,0,11.6,5.2,11.6,11.7v72.7c0.3,9.2,6.9,21.1,13.3,27.9l68.5,68.4c4.6,4.6,4.6,12.2,0,16.7
			l-12.5,12.5c-4.5,4.6-12.1,4.6-16.6,0l-61.8-61.9c-4.2-4-7.1-6.5-14.7-6.5c-7.7,0-10.7,2.5-14.7,6.5l-61.9,61.9
			c-4.7,4.6-12.1,4.6-16.5,0l-12.6-12.5c-4.6-4.4-4.6-12.1,0-16.7l68.6-68.4c6.5-6.9,12.8-18.7,13.2-27.9v-72.7
			c0-6.5,5.2-11.7,11.7-11.7L1672,412.6"/>
		<path id="path32" d="M1887.9,386.9c-11.6-4.3-33.2-25.7-42.9-34.4l-2.7-0.4c3.5,3.8,18.4,22.8,22.3,29.2
			c11.8,19.6-10.5,38-34.9,24c-9.3-5.3-24.9-21.6-32.4-27.6l-2.3-0.6c3.3,3.4,17.2,21.5,20.8,27.4c10.8,15.8-11.7,30.9-31,19.2
			c-13.7-8.2-24.9-19.4-36.3-28.3l-2-0.5c3.1,3,10.8,12.1,13.7,15.2c11.4,12.8-4.9,27.6-22.2,18.6c-16.5-8.4-40.3-32.2-66.3-48.9
			c12.1-6.5,33.3-7.5,67-21.9c33.8-14.4,44.7-48,22.6-74.5c-20.4-24.6-51.4-16.3-78.1-7.9c-31,9.7-42,19.7-79.3,32.6
			c-24.3,8.5-34.3,8.4-33.9,15.3c0.4,8,21.5,3.2,41.2-3.9c54.7-19.9,127.3-64.9,145.2-16.3c14.1,38.2-48.9,54.8-73.1,59.4
			c-33.6,6.5-56.7,31.1-85.8,46.8c-44,23.7-77.8,24.3-102.9,19.8c-27-4.8-65.5-26.9-88.8-40.9c-16.2-9.6-15-24.2,0.8-46.7
			c56.1-79.7,148.6-131.8,253.2-131.8c111,0,208.4,58.9,262.9,146.7C1934.7,376.1,1915.7,396.8,1887.9,386.9"/>
		<path id="path34" d="M1000.9,173.9c0.1-8.9,31.8-18.5,48.5-18.5c16.6,0,39.9,6.2,51.9,35.8c12.6,31.1,64.9,210.3,64.9,210.3
			l5.9,0.1c11.7,2.1,16,9.1,16,27.1c0,6.5-0.9,7-6.1,7H1139c-4.1-0.1-4.5-0.8-5.8-5l-35.7-138.2l-36.8,138.2c-1.2,4.2-1.7,4.9-5.8,5
			h-43.2c-5.2,0-6.1-0.6-6.1-7c0-18,4.4-25.1,16.2-27.1l6-0.1c0,0,34.3-120.3,52.4-170.7l-2.6-9.8c-5.8-18.9-15.8-27.5-31.6-27.5
			c-3.8,0-25,3.2-25,3.2c-12,0.9-15.2-4.1-16.5-8.4C1002.4,182.1,1000.9,175.1,1000.9,173.9"/>
		<path id="path36" d="M854.5,502.7h-51.2c-4.5,0-4.6-0.5-5.3-5l-28.9-179l-34.8,178.1c-0.9,4.8-1.6,5.9-7.1,5.9h-23.5
			c-8.6,0-9-1.3-10-6.2l-36.4-177.7l-27.3,179c-0.7,4.5-0.8,5-5.2,5h-52.7c-5.4,0-6.3-0.5-6.3-7.2c0-19.7,4.8-26.9,18.8-28.5
			l5.3-0.4l40.1-220.2c1.4-5.1,1.9-6.2,6.7-6.2h34.7c5.6,0,5.8,0.3,6.7,6.2l34.6,171.2l29-171.4c1.2-5.7,1.2-6,6.8-6h35.4
			c4.7,0,5.4,1,6.6,6.2L836,466.9l5,0.2c14,1.6,18.7,8.8,18.7,28.5C859.7,501.7,858.8,502.4,854.5,502.7"/>
		<path id="path38" d="M942.4,284c-4.8-5.2-14.9-16-28.9-16c-14.4,0-25.5,12.4-25.5,28.6c0,36.2,42.7,34,54.4,33.1L942.4,284z
			 M988,274.8c-2.1,7.7-4.1,17.3-4.1,35v69.3c0,43.7-18.9,63-62.1,63c-30,0-61.7-12.9-61.7-21.1c0-1,1.3-7.4,3.4-13.2
			c0.9-2.6,2.9-8.5,15.6-7.6c5.1,0.4,27.1,4.6,36.4,4.6c24.4,0,26.8-14.2,26.8-30.9v-13.8c-30.4,0-96-0.3-96-66.3
			c0-37.2,20.6-60.3,53.9-60.3c25.2,0,37.8,13.8,45.3,22.2l2.9,3.2l0.9-5c1.6-8.1,3-13.6,9.2-13.6h44.2c5.5,0,6.2,0.4,6.2,6.8
			C1009.1,266.9,1004.4,273.8,988,274.8"/>
		<path id="path40" d="M677.6,599.5l-4.7,0.1v156.2c0,3.9-0.3,4.3-3.9,4.3h-61.8c-5.4,0-6-0.4-6-6.9c0-21.3,5.6-27.7,24-27.7h4.4
			V599.6l-4.7-0.1c-18.4,0-23.9-6.6-23.9-27.8c0-6.4,0.8-6.9,6.1-6.9h88.3c5.2,0,6.2,0.5,6.2,6.9
			C701.6,592.8,695.6,599.5,677.6,599.5"/>
		<path id="path42" d="M650.8,834.2c-14.8,0-26.3-12.4-26.3-28.1c0-15.5,11.7-28.2,26.3-28.2c14.3,0,25.7,12.8,25.7,28.2
			C676.5,821.6,665.1,834.2,650.8,834.2"/>
		<path id="path44" d="M358.5,784.8h1.2c18.8,0,24.7,6.9,24.7,28.6c0,6.4-0.8,7.1-6.2,7.1H293c-4.8,0-5.5-0.8-6-3.7l-0.2-3.3
			c0-21.7,5.9-28.5,24.3-28.6h1.2V656.6c0-24.6,0-58-39.4-58c-36.4,0-39.4,26.3-39.4,58v128.2h1.2c18.3,0.1,24.2,7,24.2,28.6l-0.3,4
			c-0.5,2.3-1.3,3-6,3h-84.9c-5.4,0-6.3-0.7-6.3-7.1c0-22,5.6-28.6,24.7-28.6h1.1V656.6c0-69,25.6-98.6,85.5-98.6
			c59.9,0,85.6,29.5,85.6,98.6L358.5,784.8"/>
		<path id="path46" d="M555.6,599.5V705c0,42.8-14,62-45.5,62c-28.1,0-43.7-16.4-55.7-28.8c-1.1,4.5-1.9,8.1-1.9,8.1
			c-1.9,8.6-3.5,13.9-9,13.9h-47.7c-5.3,0-6.1-0.4-6.1-6.9c0-20.1,5-27.3,22-27.7c2.4-8.5,3.9-15.3,3.9-35.5v-90.6
			c-18-0.1-23.5-6.7-23.5-27.8c0-6.4,0.9-6.9,6.2-6.9H455c3.5,0,3.7,0.5,3.7,4.2v141.4c5.2,5.4,17,17.2,32.1,17.2
			c21.5,0,21.5-24.6,21.5-35.1V569.1c0-3.7,0.1-4.2,3.8-4.2h56.6c5.2,0,6.1,0.5,6.1,6.9C578.9,592.5,573.1,599.3,555.6,599.5"/>
		<path id="path48" d="M783.8,558c25.2,0,45.7,6.5,45.7,12c0,1-1.5,8.4-2.4,12c-3.5,14.7-4.9,20.1-31.7,16.8
			c-3.4-0.4-6.4,0.4-8.5,2.5c-5.1,5.2-5.1,16.8-5.1,26v98.2h24c18.4,0,23.9,6.5,23.9,27.7c0,6.4-0.8,6.9-6.1,6.9h-41.8v54.8
			c0,5.3-0.5,5.5-2.5,5.6c-1.9,0-10.7-1.2-15.2-1.8c-12.4-2.1-25.6-11.7-25.6-33.8v-24.8h-24.7c-5.2,0-6.1-0.4-6.1-6.9
			c0-21.3,5.7-27.7,23.9-27.7h7V634C738.5,596.7,738.5,558,783.8,558"/>
		<path id="path50" d="M890.1,684.7l0.3,3.4c1.2,13.3,3.9,44.3,31.6,44.3c27.1,0,27.2-31.6,27.2-47.7H890.1z M993.7,659
			c0,71.6-23.9,108-70.8,108c-46.5,0-77.5-42.7-77.5-106.4c0-84.6,43.1-102.5,79.4-102.5c29.2,0,63.1,13.7,63.1,22.4
			c0,1.4-1.4,7.9-3.4,13.9c-1.3,4.3-3.9,8.7-16.2,8.1c-9.5-0.5-24.8-4.9-38.9-4.9c-27,0-40.8,16.9-40.9,52.8h98.2
			C992.4,650.3,993.7,651.8,993.7,659"/>
		<path id="path52" d="M1089.8,595.4c-26.3,0-31.5,24.1-31.5,65.9c0,44.3,5.4,68.2,33.8,68.2c11.2,0,19.4-2.4,28.8-8.5V610.3
			C1115.3,603.7,1107.3,595.4,1089.8,595.4z M1168.1,599.5c-2.4,7.7-3.9,15.7-3.9,34.9v194.7c0,3.6-0.3,4.2-3.9,4.2h-56.9
			c-5.3,0-6.3-0.5-6.3-6.7c0-20.6,5.5-27.4,22.6-27.8h1.1v-45l-3.5,2.4c-6.6,4.6-15.4,10.8-34.3,10.8c-44.4,0-68-38.9-68-112.5
			c0-62.1,21.5-96.4,60.5-96.4c30.9,0,51.2,22.6,51.2,22.6l2.5-8.4c1.8-6.6,2.2-7.3,7.4-7.3h50.1c5.2,0,6.1,0.5,6.1,6.9
			C1192.9,592.7,1187.3,599.5,1168.1,599.5"/>
		<path id="path54" class="st1" d="M1959.6,179h4.5c5.1,0,7.1,0.7,7.1,4.4c0,2.8-1.7,4.1-6,4.1h-5.6L1959.6,179z M1959.6,163.5h-4.1
			v27.4h10.3c6.3,0,9.5-2.5,9.5-7.8c0-4.9-3.2-7-6.6-7.4l7.3-12.2h-4.9l-7.3,12.1h-4.2L1959.6,163.5z M1983.4,177.6
			c0,11-8.4,19.5-19.1,19.5c-10.7,0-19.1-8.5-19.1-19.5c0-11.4,8.4-19.8,19.1-19.8C1975,157.8,1983.4,166.2,1983.4,177.6z
			 M1940.8,177.6c0,13.1,10.8,23.2,23.5,23.2c12.9,0,23.7-10.1,23.7-23.2c0-13.4-10.8-23.6-23.7-23.6
			C1951.5,154,1940.8,164.1,1940.8,177.6"/>
	</g>
</g>
</svg>
