<?xml version="1.0" encoding="UTF-8"?>
<svg width="36px" height="36px" viewBox="0 0 36 36" version="1.1" xmlns="http://www.w3.org/2000/svg" xmlns:xlink="http://www.w3.org/1999/xlink">
    <title>twitter</title>
    <g id="twitter" stroke="none" stroke-width="1" fill="none" fill-rule="evenodd">
        <g fill="#1C1834" id="Combined-Shape">
            <path d="M18,0 C27.9411255,0 36,8.0588745 36,18 C36,27.9411255 27.9411255,36 18,36 C8.0588745,36 0,27.9411255 0,18 C0,8.0588745 8.0588745,0 18,0 Z M10.02251,9 L9.2679,9.81967 C8.87183,10.24988 8.57754,10.71941 8.37395,11.22659 C8.05627,12.01797 7.99394,12.63803 8.00044,13.79847 L8.00098,13.902545 C8.0010775,13.9279275 8.001125,13.95246 8.00122,14.00152 C8.00122,16.30379 8.868,17.9636 10.59854,18.9983 C10.42143,19.0311 10.22331,19.0489 10.0036,19.0489 L10.0036,19.0489 L9.0036,19.0489 L9.0036,20.0489 C9.0036,21.9508 10.29577,22.9635 12.60159,23.3343 C11.76169,23.6561 10.66801,23.8964 9.40659,24.0124 L9.40659,24.0124 L8.01221,24.1407 L8.58597,25.418 C9.14327,26.6587 10.36115,27.3685 11.99765,27.7257 C12.99207,27.9427 13.86051,27.9974 15.00354,27.9974 C20.5895,27.9974 26.5045,24.1135 26.5045,18.0015 L26.5045,18.0015 L26.5045,15.61299 C26.5237,15.57878 26.5504,15.53608 26.5865,15.48194 C26.5929,15.47236 26.7296,15.27265 26.7697,15.20987 C26.8654,15.05962 26.9302,14.94422 26.967,14.81258 L26.967,14.81258 L27.8983,12.948 L28.5343,11.67349 L27.1195,11.50827 C26.5957,11.44709 26.1006,11.36851 25.6345,11.27273 C24.7828,10.45501 23.6991,10.00152 22.5043,10.00152 C19.9415,10.00152 18.0146,11.93105 18.0042,14.48072 C15.56395,14.27795 13.17394,12.60161 10.75617,9.83847 L10.75617,9.83847 L10.02251,9 Z M22.5043,12.00152 C23.2359,12.00152 23.8785,12.29855 24.3904,12.86028 L24.3904,12.86028 L24.6021,13.0926 L24.9086,13.16202 C25.1003,13.20541 25.2958,13.24599 25.4952,13.28377 C25.3669,13.54061 25.2386,13.79745 25.1101,14.05429 L25.1101,14.05429 L25.0309,14.21279 C24.9892,14.27426 24.9367,14.35115 24.9225,14.37237 C24.8474,14.48509 24.7865,14.58393 24.7311,14.68759 C24.5897,14.95273 24.5045,15.20774 24.5045,15.50152 L24.5045,15.50152 L24.5045,18.0015 C24.5045,22.7888 19.618,25.9974 15.00354,25.9974 C13.76166,25.9974 12.68178,25.8903 11.87075,25.6419 C14.35762,25.0561 16.0039,23.9343 16.0039,22.5015 L16.0039,22.5015 L16.0039,21.5015 L15.00389,21.5015 C13.139,21.5015 11.98631,21.2708 11.42268,20.8431 C12.65222,20.4691 13.49255,19.6342 13.49255,18.7472 L13.49255,18.7472 L13.49255,18.0158 L12.79547,17.7942 C10.83093,17.1698 10.00122,16.04953 10.00122,14.00152 C10.001115,13.94768 10.0010625,13.92076 10.0009612,13.8939787 L10.0002325,13.5590278 C10.003384,12.9056133 10.041517,12.524277 10.16389,12.15228 C12.80136,14.89542 15.50607,16.50152 18.5041,16.50152 C19.4096,16.50152 19.8499,15.87116 19.9683,15.08615 C19.998,14.88942 20.0041,14.73974 20.0041,14.50152 C20.0041,13.04391 21.0414,12.00152 22.5043,12.00152 Z"></path>
        </g>
    </g>
</svg>