<?xml version="1.0" encoding="UTF-8"?>
<svg width="36px" height="36px" viewBox="0 0 36 36" version="1.1" xmlns="http://www.w3.org/2000/svg" xmlns:xlink="http://www.w3.org/1999/xlink">
    <title>facebook</title>
    <g id="facebook" stroke="none" stroke-width="1" fill="none" fill-rule="evenodd">
        <g fill="#1C1834" id="Combined-Shape">
            <path d="M18,0 C27.9411255,0 36,8.0588745 36,18 C36,27.9411255 27.9411255,36 18,36 C8.0588745,36 0,27.9411255 0,18 C0,8.0588745 8.0588745,0 18,0 Z M21.9556333,10 L20.6223,10 C18.4131,10 16.6223,11.7908667 16.6223,14 L16.6223,15.3392 L14.1331,15.3392 L14.1331,18.0058667 L16.6223,18.0058667 L16.6223,26 L19.2889667,26 L19.2889667,18.0058667 L21.9321667,18.0058667 L21.9321667,15.3392 L19.2889667,15.3392 L19.2889667,14 C19.2889667,13.2636267 19.8859,12.6666667 20.6223,12.6666667 L21.9556333,12.6666667 L21.9556333,10 Z"></path>
        </g>
    </g>
</svg>