<?xml version="1.0" encoding="UTF-8"?>
<svg width="36px" height="36px" viewBox="0 0 36 36" version="1.1" xmlns="http://www.w3.org/2000/svg" xmlns:xlink="http://www.w3.org/1999/xlink">
    <title>instagram</title>
    <g id="instagram" stroke="none" stroke-width="1" fill="none" fill-rule="evenodd">
        <g fill="#1C1834" id="Combined-Shape">
            <path d="M18,0 C27.9411255,0 36,8.0588745 36,18 C36,27.9411255 27.9411255,36 18,36 C8.0588745,36 0,27.9411255 0,18 C0,8.0588745 8.0588745,0 18,0 Z M22,8 L14,8 C10.68629,8 8,10.68629 8,14 L8,22 C8,25.3137 10.68629,28 14,28 L22,28 C25.3137,28 28,25.3137 28,22 L28,14 C28,10.68629 25.3137,8 22,8 Z M22,10 C24.2091,10 26,11.79086 26,14 L26,22 C26,24.2091 24.2091,26 22,26 L14,26 C11.79086,26 10,24.2091 10,22 L10,14 C10,11.79086 11.79086,10 14,10 L22,10 Z M18,13 C15.23858,13 13,15.23858 13,18 C13,20.7614 15.23858,23 18,23 C20.7614,23 23,20.7614 23,18 C23,15.23858 20.7614,13 18,13 Z M18,15 C19.6569,15 21,16.3431 21,18 C21,19.6569 19.6569,21 18,21 C16.3431,21 15,19.6569 15,18 C15,16.3431 16.3431,15 18,15 Z M23,12 C22.4477,12 22,12.44772 22,13 C22,13.55228 22.4477,14 23,14 C23.5523,14 24,13.55228 24,13 C24,12.44772 23.5523,12 23,12 Z"></path>
        </g>
    </g>
</svg>