<?xml version="1.0" encoding="UTF-8"?>
<svg width="20px" height="20px" viewBox="0 0 20 20" version="1.1" xmlns="http://www.w3.org/2000/svg" xmlns:xlink="http://www.w3.org/1999/xlink">
    <title>facebook-outline</title>
    <g id="facebook-outline" stroke="none" stroke-width="1" fill="none" fill-rule="evenodd">
        <path d="M2,0 L18,0 C19.1046,0 20,0.89543 20,2 L20,18 C20,19.1046 19.1046,20 18,20 L2,20 C0.89543,20 0,19.1046 0,18 L0,2 C0,0.89543 0.89543,0 2,0 Z M2,2 L2,18 L18,18 L18,2 L2,2 Z M9.1331,10.0044 L11,10.0044 L11,16 L13,16 L13,10.0044 L14.9824,10.0044 L14.9824,8.0044 L13,8.0044 L13,7 C13,6.44772 13.4477,6 14,6 L15,6 L15,4 L14,4 C12.3431,4 11,5.34315 11,7 L11,8.0044 L9.1331,8.0044 L9.1331,10.0044 Z" id="Combined-Shape" fill="#F5F3F1"></path>
    </g>
</svg>
