<?xml version="1.0" encoding="UTF-8"?>
<svg width="20px" height="20px" viewBox="0 0 20 20" version="1.1" xmlns="http://www.w3.org/2000/svg" xmlns:xlink="http://www.w3.org/1999/xlink">
    <title>instagram-outline</title>
    <g id="instagram-outline" stroke="none" stroke-width="1" fill="none" fill-rule="evenodd">
        <g id="instagram" fill="#F5F3F1">
            <path d="M14,0 L6,0 C2.68629,0 0,2.68629 0,6 L0,14 C0,17.3137 2.68629,20 6,20 L14,20 C17.3137,20 20,17.3137 20,14 L20,6 C20,2.68629 17.3137,0 14,0 Z M2,6 C2,3.79086 3.79086,2 6,2 L14,2 C16.2091,2 18,3.79086 18,6 L18,14 C18,16.2091 16.2091,18 14,18 L6,18 C3.79086,18 2,16.2091 2,14 L2,6 Z M10,15 C7.23858,15 5,12.7614 5,10 C5,7.23858 7.23858,5 10,5 C12.7614,5 15,7.23858 15,10 C15,12.7614 12.7614,15 10,15 Z M10,13 C11.6569,13 13,11.6569 13,10 C13,8.3431 11.6569,7 10,7 C8.3431,7 7,8.3431 7,10 C7,11.6569 8.3431,13 10,13 Z M16,5 C16,5.55228 15.5523,6 15,6 C14.4477,6 14,5.55228 14,5 C14,4.44772 14.4477,4 15,4 C15.5523,4 16,4.44772 16,5 Z" id="Combined-Shape"></path>
        </g>
    </g>
</svg>
