<?xml version="1.0" encoding="UTF-8"?>
<!-- Generator: Adobe Illustrator 23.1.1, SVG Export Plug-In . SVG Version: 6.00 Build 0)  -->
<svg version="1.1" id="Layer_1" xmlns="http://www.w3.org/2000/svg" xmlns:xlink="http://www.w3.org/1999/xlink" x="0px" y="0px" viewBox="0 0 172 64" style="enable-background:new 0 0 172 64;" xml:space="preserve">
<style type="text/css">
	.st0{clip-path:url(#SVGID_2_);}
	.st1{fill:#49437D;}
	.st2{fill:#08A7AC;}
	.st3{fill:#D54F42;}
</style>
<g>
	<defs>
		<rect id="SVGID_1_" width="172" height="64"/>
	</defs>
	<clipPath id="SVGID_2_">
		<use xlink:href="#SVGID_1_" style="overflow:visible;"/>
	</clipPath>
	<g class="st0">
		<path class="st1" d="M9.3,26.5H4l-0.7,2H0l5.1-13.2h3.1l5.1,13.2H9.9L9.3,26.5z M8.4,24.1l-1.7-4.8l-1.8,4.8H8.4z"/>
		<path class="st1" d="M17.4,15.3v10.3h4.5v2.9h-7.7V15.3H17.4z"/>
		<path class="st1" d="M26.1,15.3v10.3h4.5v2.9H23V15.3H26.1z"/>
		<path class="st1" d="M86.5,14.4C86.4,6.4,79.8,0,71.3,0c-8.5,0-15.1,6.4-15.1,14.4h6.6v0c0-4.7,3.7-8.5,8.6-8.5    c4.8,0,8.6,3.8,8.6,8.5v0H86.5C86.4,14.4,86.4,14.4,86.5,14.4L86.5,14.4C86.5,14.5,86.5,14.5,86.5,14.4z"/>
		<path class="st2" d="M79.9,14.4C79.9,14.4,79.9,14.4,79.9,14.4c0,4.7-3.8,8.5-8.6,8.5c-4.9,0-8.6-3.8-8.6-8.5v0h-6.6    c0,0,0,0,0,0.1c0,8,6.6,14.4,15.1,14.4c8.4,0,15.1-6.5,15.1-14.4c0,0,0,0,0-0.1H79.9z"/>
		<path class="st2" d="M106,0.9h6.5V28H106V0.9z"/>
		<path class="st1" d="M37.5,36.8h2.8v12.7h-2.8V36.8z"/>
		<path class="st1" d="M49.1,39.3c-0.6-0.3-1.6-0.5-2.5-0.5c-1.1,0-1.6,0.4-1.6,1c0,0.6,0.6,1.1,2,2.1c2,1.5,3,2.5,3,4.1    c0,2.3-2.1,3.6-4.8,3.6c-1,0-2.4-0.2-3.1-0.4v-2.7c0.7,0.3,2,0.6,3.1,0.6c1.1,0,1.7-0.5,1.7-1.1c0-0.6-0.7-1.2-2.1-2.2    c-2.2-1.6-2.9-2.5-2.9-4c0-1.8,1.4-3.4,4.7-3.4c0.8,0,1.9,0.1,2.6,0.4L49.1,39.3L49.1,39.3z"/>
		<path class="st2" d="M50.1,0.9l-6.9,19.3V28h3.4L56.8,0.9H50.1z"/>
		<path class="st3" d="M36.3,0.9h-7L39.5,28h3.7v-7.9L36.3,0.9z"/>
		<path class="st1" d="M87,0.9v5.8h5.2h6.5h5.2V0.9H87z"/>
		<path class="st3" d="M98.7,6.7h-6.5V28h6.5V6.7z"/>
		<path class="st3" d="M122.1,0.9h-6.3l6.5,10.9L134.3,28h6.3L134,17.1L122.1,0.9z"/>
		<path class="st2" d="M134,0.9v16.2l6.5,10.9V0.9H134z"/>
		<path class="st1" d="M115.9,28h6.5V11.8l-6.5-10.9V28z"/>
		<path class="st1" d="M158.2,23c-4.9,0-8.6-3.8-8.6-8.5c0-4.7,3.8-8.5,8.6-8.5c2.3,0,4.5,0.9,6.2,2.5l4.2-4.6    c-2.6-2.3-6.4-3.8-10.3-3.8C149.6,0,143,6.4,143,14.4c0,8,6.6,14.5,15.1,14.5c6.7,0,12-4.7,13.5-11.1h-6.6    C164.1,20.8,161.5,23,158.2,23z"/>
		<path class="st3" d="M158.4,17.8h6.7h6.6c0.3-1.1,0.3-2.2,0.3-3.4v-1.8h-11.4L158.4,17.8z"/>
		<path class="st2" d="M119.7,58c-4.9,0-8.8-3.9-8.8-8.5h-6.6c0,8,6.3,14.4,14.9,14.4c2.1,0,3.3-0.3,4.5-0.8l1.9-6.6    C124.1,57.5,121.7,58,119.7,58z"/>
		<path class="st1" d="M119.6,41.1c2,0,3.9,0.5,5.5,1.5v-6.2c-1.8-0.8-3.8-1.2-5.9-1.2c-8.6,0-14.9,6.4-14.9,14.3h6.6    C110.8,44.9,114.6,41.1,119.6,41.1z"/>
		<path class="st1" d="M61.9,35.9h-6.5v21.3h6.5V35.9z"/>
		<path class="st2" d="M61.9,57.2L61.9,57.2h-6.6v5.9h15.8v-5.9H61.9z"/>
		<path class="st3" d="M72,49.5c0,8,6.6,14.5,15.1,14.5v-5.9c-4.8-0.1-8.6-3.9-8.6-8.5c0-4.7,3.8-8.5,8.6-8.5V35    C78.5,35.1,72,41.5,72,49.5z"/>
		<path class="st1" d="M87.1,35.1V41c4.8,0,8.6,3.8,8.6,8.5c0,4.7-3.8,8.5-8.6,8.5v5.9c8.5,0,15.1-6.5,15.1-14.5    C102.2,41.5,95.6,35.1,87.1,35.1z"/>
		<path class="st2" d="M143.4,35.9h-3.3V44l3.6,9.9h-3.6v5.1h5.4l1.4,4.1h7L143.4,35.9z"/>
		<path class="st3" d="M136.5,53.9l3.6-9.9V44v-8.1H137l-10.6,27.2h6.8l1.4-4.1h5.5v-5.1H136.5z"/>
		<path class="st1" d="M162.4,53.5V35.9h-6.5v27.2h6.5v-5.9V53.5z"/>
		<path class="st2" d="M171.6,57.2h-9.2v5.9h9.2V57.2z"/>
	</g>
</g>
</svg>