<?xml version="1.0" encoding="UTF-8"?>
<svg width="16px" height="16px" viewBox="0 0 16 16" version="1.1" xmlns="http://www.w3.org/2000/svg" xmlns:xlink="http://www.w3.org/1999/xlink">
    <title>icons/close</title>
    <g id="icons/close" stroke="none" stroke-width="1" fill="none" fill-rule="evenodd">
        <path d="M7.99911111,6.40711111 L1.92208093,0.329781218 L1.85957031,0.272300425 C1.37025142,-0.110364023 0.732429613,-0.0728774754 0.329776069,0.329776069 L0.247698469,0.421197066 C-0.107971128,0.863316207 -0.0806119279,1.51168779 0.329776069,1.92207578 L6.40711111,8 L0.329781218,14.0779191 L0.272300425,14.1404297 C-0.110364023,14.6297486 -0.0728774754,15.2675704 0.329776069,15.6702239 L0.421197066,15.7523015 C0.863316207,16.1079711 1.51168779,16.0806119 1.92207578,15.6702239 L8,9.592 L14.0779191,15.6702188 L14.1404297,15.7276996 C14.6297486,16.110364 15.2675704,16.0728775 15.6702239,15.6702239 L15.7523015,15.5788029 C16.1079711,15.1366838 16.0806119,14.4883122 15.6702239,14.0779242 L9.592,7.99911111 L15.6702188,1.92208093 L15.7276996,1.85957031 C16.110364,1.37025142 16.0728775,0.732429613 15.6702239,0.329776069 C15.2305225,-0.109925356 14.5176256,-0.109925356 14.0779242,0.329776069 L7.99911111,6.40711111 Z" id="Combined-Shape" fill="#1C1834" fill-rule="nonzero"></path>
    </g>
</svg>