<?xml version="1.0" encoding="UTF-8"?>
<svg width="16px" height="16px" viewBox="0 0 16 16" version="1.1" xmlns="http://www.w3.org/2000/svg" xmlns:xlink="http://www.w3.org/1999/xlink">
    <title>icons/arrow-down</title>
    <g id="icons/arrow-down" stroke="none" stroke-width="1" fill="none" fill-rule="evenodd">
        <path d="M0.331706389,3.32959716 C-0.110553301,3.7656408 -0.110571008,4.47009079 0.331666542,4.90615584 L7.19162166,11.6703636 L7.25969685,11.7316545 L7.29809506,11.7630389 C7.75117718,12.1104121 8.40023495,12.0727983 8.80836619,11.6703636 L15.6683213,4.90615584 L15.7021419,4.87067211 L15.7304286,4.83908589 L15.7621174,4.80139119 C16.1108626,4.35913104 16.0732803,3.72890367 15.6682815,3.32959716 L15.6322404,3.29620187 L15.6002055,3.26831145 L15.561807,3.23692984 L15.5016339,3.193806 C15.0527421,2.89355015 14.4419497,2.94471215 14.0515768,3.32963644 L8,9.29608178 L1.94838572,3.32961145 L1.88033823,3.26834745 L1.8419414,3.236964 C1.38887615,2.88960081 0.73984396,2.92719603 0.331706389,3.32959716 Z" id="Stroke-1" fill="#FF5554" fill-rule="nonzero"></path>
    </g>
</svg>