<svg id="Layer_1" data-name="Layer 1" xmlns="http://www.w3.org/2000/svg" viewBox="0 0 569.73 319.82"><defs><style>.cls-1{fill:#1c1834;}</style></defs><path class="cls-1" d="M31.64,238.67l35.69-74.51c.76-1.41-.68-2.94-2.77-2.94H45.16v-74c0-2.39-4.56-3-5.76-.79L.21,160.89c-.77,1.41.67,2.94,2.77,2.94H25.89v74C25.89,240.27,30.45,240.89,31.64,238.67Z"/><path class="cls-1" d="M131.75,80.86H98.09v68.56H120.5V127.61h11.25q13.17,0,19.9-5.82t6.73-16.93Q158.38,80.86,131.75,80.86Zm2.35,28.57q-1.87,1.54-6,1.55H120.5V98.1h7.59q4.14,0,6,1.56a7.29,7.29,0,0,1,0,9.77Z"/><path class="cls-1" d="M228.47,115.14q0-16.73-8.51-26t-23.7-9.3A34.17,34.17,0,0,0,179,84a27.41,27.41,0,0,0-11.15,12.1q-3.9,8-3.9,19.06t3.9,19.06A27.41,27.41,0,0,0,179,146.3a34.17,34.17,0,0,0,17.26,4.16q15.19,0,23.7-9.3T228.47,115.14Zm-25.1,13a7.49,7.49,0,0,1-7.11,4.1,7.59,7.59,0,0,1-7.16-4.1q-2.26-4.11-2.26-13t2.26-13a7.59,7.59,0,0,1,7.16-4.1,7.49,7.49,0,0,1,7.11,4.1q2.22,4.11,2.22,13T203.37,128.18Z"/><polygon class="cls-1" points="297.69 130.1 288.27 80.86 269.04 80.86 260.1 130.41 252.7 80.86 228.56 80.86 246.54 149.42 271.16 149.42 276.06 123.66 278.56 106.1 278.85 106.1 281.35 123.66 286.35 149.42 310.1 149.42 328.17 80.86 304.9 80.86 297.69 130.1"/><polygon class="cls-1" points="385 98.62 385 80.86 332.31 80.86 332.31 149.42 386.15 149.42 386.15 131.66 354.71 131.66 354.71 123.55 379.13 123.55 379.13 107.14 354.71 107.14 354.71 98.62 385 98.62"/><path class="cls-1" d="M452.59,103.82q0-11.43-6.49-17.2t-19.19-5.76H392.49v68.56h21.93V126.67h6.15l11.25,22.75h24.32l-15-25.35Q452.58,118.88,452.59,103.82Zm-24.19,5.55q-1.77,1.41-6,1.41h-8V98.1h8q4.23,0,6,1.46c1.19,1,1.78,2.59,1.78,4.88S429.59,108.44,428.4,109.37Z"/><polygon class="cls-1" points="94.22 182.08 104.57 182.08 104.57 244.13 119.84 244.13 119.84 182.08 130.1 182.08 130.1 169.89 94.22 169.89 94.22 182.08"/><polygon class="cls-1" points="162.17 199.95 151.57 199.95 151.57 169.89 136.38 169.89 136.38 244.13 151.57 244.13 151.57 211.69 162.17 211.69 162.17 244.13 177.44 244.13 177.44 169.89 162.17 169.89 162.17 199.95"/><polygon class="cls-1" points="218.76 181.07 218.76 169.89 187.88 169.89 187.88 244.13 218.93 244.13 218.93 233.04 203.06 233.04 203.06 210.86 215.02 210.86 215.02 199.49 203.06 199.49 203.06 181.07 218.76 181.07"/><path class="cls-1" d="M280.77,172.41a18.76,18.76,0,0,0-10.18-2.52H247.51v74.24H262.7V212.6h6.11a27.74,27.74,0,0,0,10.09-1.74,13.91,13.91,0,0,0,7.13-6.28q2.63-4.53,2.63-13.15a31.18,31.18,0,0,0-2-11.69A15.06,15.06,0,0,0,280.77,172.41Zm-6.83,24.33A5.35,5.35,0,0,1,272,200a6.86,6.86,0,0,1-4.24,1.1H262.7v-19.7h5a6.66,6.66,0,0,1,4.5,1.28,5.84,5.84,0,0,1,1.83,3.44,29.38,29.38,0,0,1,.38,5A27.61,27.61,0,0,1,273.94,196.74Z"/><path class="cls-1" d="M328,171.77q-4.55-2.9-12.34-2.89t-12.22,2.89a15.93,15.93,0,0,0-6.45,8.29,38.87,38.87,0,0,0-2,13.11v27.59a39.36,39.36,0,0,0,2,13.11,16.2,16.2,0,0,0,6.45,8.43q4.5,2.92,12.22,2.93T328,242.3a16.11,16.11,0,0,0,6.49-8.43,39.36,39.36,0,0,0,1.95-13.11V193.17a38.87,38.87,0,0,0-1.95-13.11A15.85,15.85,0,0,0,328,171.77Zm-7.08,53.11a25.48,25.48,0,0,1-.34,4.13,6.75,6.75,0,0,1-1.44,3.3,4.38,4.38,0,0,1-3.48,1.28,4.23,4.23,0,0,1-3.44-1.28,6.59,6.59,0,0,1-1.36-3.3,29.42,29.42,0,0,1-.29-4.13V189.14a24.12,24.12,0,0,1,.34-4.17,6.51,6.51,0,0,1,1.44-3.26,4.14,4.14,0,0,1,3.31-1.28,4.38,4.38,0,0,1,3.48,1.28,6.69,6.69,0,0,1,1.44,3.26,25.15,25.15,0,0,1,.34,4.17Z"/><polygon class="cls-1" points="345.67 169.89 345.67 244.13 376.63 244.13 376.63 233.04 360.85 233.04 360.85 169.89 345.67 169.89"/><polygon class="cls-1" points="382.57 244.13 413.54 244.13 413.54 233.04 397.76 233.04 397.76 169.89 382.57 169.89 382.57 244.13"/><path class="cls-1" d="M437,232.77a4.39,4.39,0,0,1-3.18-1.29,8.79,8.79,0,0,1-2-4.21,35.72,35.72,0,0,1-.8-7.7l-13,2.11a37.64,37.64,0,0,0,2.46,13.42,15.43,15.43,0,0,0,6.53,7.66,21.46,21.46,0,0,0,10.78,2.47,17.88,17.88,0,0,0,9.54-2.47A16.9,16.9,0,0,0,453.5,236a20.32,20.32,0,0,0,2.2-9.49,25,25,0,0,0-3.09-12.92,41.16,41.16,0,0,0-7.6-9.35l-5.68-5.41a37.25,37.25,0,0,1-4.8-5.45,11.56,11.56,0,0,1-1.82-6.74,8.49,8.49,0,0,1,1-3.85,3.24,3.24,0,0,1,3.09-1.92,3.29,3.29,0,0,1,2.89,1.33A8.31,8.31,0,0,1,440.9,186q.28,2.43.38,5.72L454.34,190a45.46,45.46,0,0,0-.72-6.92,22.78,22.78,0,0,0-2.37-6.87,13.54,13.54,0,0,0-5.09-5.27,17,17,0,0,0-8.87-2q-8.91,0-14.08,5T418,188.31a21.71,21.71,0,0,0,2.68,11.23,34.9,34.9,0,0,0,6.57,8.11l5.94,5.59a33.14,33.14,0,0,1,5.51,6.37,14,14,0,0,1,2,7.75,9.56,9.56,0,0,1-.72,3.67A3,3,0,0,1,437,232.77Z"/><path class="cls-1" d="M523.92,105.53V0H26.45V66.49H44.32V17.87H506.05V302H44.32V258.33H26.45v61.49H523.92V214.29H569.7V105.53Zm27.91,90.89H523.92v-73h27.91Z"/></svg>