<?xml version="1.0" standalone="no"?>
<!DOCTYPE svg PUBLIC "-//W3C//DTD SVG 20010904//EN"
 "http://www.w3.org/TR/2001/REC-SVG-20010904/DTD/svg10.dtd">
<svg version="1.0" xmlns="http://www.w3.org/2000/svg"
 width="1200.000000pt" height="1200.000000pt" viewBox="0 0 1200.000000 1200.000000"
 preserveAspectRatio="xMidYMid meet">
<metadata>
Created by potrace 1.11, written by Peter Selinger 2001-2013
</metadata>
<g transform="translate(0.000000,1200.000000) scale(0.100000,-0.100000)"
fill="#000000" stroke="none">
<path d="M2920 9418 c-16 -29 -326 -566 -689 -1193 l-659 -1140 628 -5 627 -5
-621 -1075 -622 -1075 628 -5 627 -5 -682 -1180 c-376 -649 -686 -1186 -690
-1192 -7 -10 247 -13 1255 -13 l1263 0 688 1189 c378 655 687 1192 687 1195 0
3 -281 7 -625 8 l-626 3 621 1074 c341 590 620 1075 620 1077 0 2 -281 4 -625
4 -344 0 -625 2 -625 5 0 2 308 538 685 1190 377 652 685 1187 685 1190 0 3
-567 5 -1260 5 l-1260 0 -30 -52z"/>
<path d="M6170 5995 l0 -3475 910 0 910 0 0 1165 0 1165 764 0 c838 0 838 0
1014 61 175 61 315 152 449 292 128 133 214 277 267 447 57 181 57 166 53
1558 -4 1399 1 1302 -63 1490 -133 397 -506 702 -928 761 -53 8 -608 11 -1727
11 l-1649 0 0 -3475z m2540 1165 l0 -710 -360 0 -360 0 0 710 0 710 360 0 360
0 0 -710z"/>
</g>
</svg>
